<svg xmlns="http://www.w3.org/2000/svg" viewBox="0 0 512 512"><path d="M329.065 512H276c-19.333 0-35.156-15.319-35.967-34.457l-29.902-175.674-175.674-29.901C15.319 271.156 0 255.333 0 236v-53.065A85.803 85.803 0 0165.557 99.4L467.637.998l.168-.04c12.2-2.847 24.775.742 33.635 9.602 8.859 8.86 12.449 21.434 9.603 33.636a10.22 10.22 0 01-.04.168l-98.402 402.08A85.804 85.804 0 01329.065 512zM475.13 32.108L73.164 130.483A53.875 53.875 0 0032 182.935V236c0 2.206 1.794 4 4 4 .9 0 1.798.076 2.685.227l188 32a15.999 15.999 0 0113.088 13.088l32 188c.151.887.227 1.785.227 2.685 0 2.206 1.794 4 4 4h53.065a53.875 53.875 0 0052.452-41.164L479.893 36.87c.389-1.76-.37-2.973-1.08-3.683-.71-.709-1.924-1.468-3.683-1.079z"></path><path d="M224 304a15.945 15.945 0 01-11.313-4.687c-6.249-6.248-6.249-16.379 0-22.627l160-160c6.248-6.249 16.379-6.249 22.627 0 6.249 6.248 6.249 16.379 0 22.627l-160 160A15.949 15.949 0 01224 304z"></path></svg>